<?xml version="1.0" encoding="UTF-8"?>
<svg id="Illustration" xmlns="http://www.w3.org/2000/svg" viewBox="0 0 844.25 493.27">
  <defs>
    <style>
      .cls-1 {
        stroke: #264653;
      }

      .cls-1, .cls-2, .cls-3, .cls-4, .cls-5, .cls-6, .cls-7, .cls-8, .cls-9 {
        stroke-miterlimit: 10;
      }

      .cls-1, .cls-10, .cls-4, .cls-9 {
        fill: #fff;
      }

      .cls-1, .cls-8 {
        stroke-width: .5px;
      }

      .cls-2, .cls-3, .cls-7, .cls-9 {
        stroke: #f4a261;
      }

      .cls-2, .cls-11 {
        fill: #e9c468;
      }

      .cls-2, .cls-9 {
        stroke-width: .25px;
      }

      .cls-3, .cls-7 {
        fill: none;
      }

      .cls-4 {
        stroke: #e76f51;
      }

      .cls-4, .cls-7 {
        stroke-width: 3px;
      }

      .cls-5 {
        stroke: #e9c46a;
      }

      .cls-5, .cls-6 {
        stroke-width: .75px;
      }

      .cls-5, .cls-6, .cls-8 {
        fill: #1d1d1b;
      }

      .cls-6, .cls-8 {
        stroke: #1d1d1b;
      }

      .cls-12 {
        opacity: .48;
      }
    </style>
  </defs>
  <g>
    <rect class="cls-10" x="389.74" y="24.16" width="230.55" height="215.64"/>
    <g class="cls-12">
      <polygon class="cls-11" points="586.21 180.7 620.35 163.64 619.09 199.62 586.28 180.74 586.21 180.7"/>
      <path class="cls-11" d="M569.72,188.94l48.26,27.8.49.28-1.39,22.03c-.11,2.11-2.36,4.15-5.92,5.65-3.14,1.32-7.21,2.13-11.47,2.31l-68.19-38.97,38.23-19.1Z"/>
      <polygon class="cls-11" points="610.18 152.52 571.21 172.07 554.76 180.32 516.53 199.49 453.68 163.58 453.69 163.57 491.77 144.15 491.66 144.15 491.46 144.1 491.46 144.09 508.05 135.73 508.21 135.74 508.25 135.75 508.28 135.74 508.3 135.73 547.3 115.86 625.02 76.32 622.08 141.18 610.18 152.52"/>
      <polygon class="cls-11" points="569.61 247.05 453.3 247.1 515.29 216.13 569.61 247.05"/>
      <path class="cls-11" d="M500.35,207.61l-78.75,39.5h-7.2c-4.79,0-9.44-.81-12.93-2.27-3.5-1.46-5.56-3.45-5.7-5.52l-3.28-44.53,45.01-22.96,62.84,35.79Z"/>
      <polygon class="cls-11" points="422.32 163.16 391.39 179.01 388.88 144.14 422.29 163.16 422.32 163.16"/>
      <path class="cls-11" d="M548.63,98.47l-62.5-36.57,65.85-34.28,54.35-.18c11.57-.04,20.61,4.57,20.33,10.33l-1.03,21.26-77,39.42Z"/>
      <polygon class="cls-11" points="428.22 28.03 518.64 27.74 470.63 52.84 428.22 28.03"/>
      <polygon class="cls-11" points="469.52 70.56 532.01 106.98 493.06 126.93 476.67 135.32 439.08 154.85 388.72 125.7 388.72 125.7 387.06 113.76 386.92 113.69 469.52 70.56"/>
      <path class="cls-11" d="M397.12,28.35l56.89,33.17-68.69,35.9-4.32-58.65c-.38-5.1,6.56-9.4,16.12-10.42Z"/>
    </g>
    <g>
      <path class="cls-4" d="M477.33,169.6l4.08-6.17c2.48-3.75,1.1-8.72-3.1-11.1l-34.19-19.38,26.35-14.96c2.75-.14,5.34-1.43,6.85-3.71l4.08-6.17c2.48-3.75,1.1-8.72-3.1-11.1l-34.82-19.74,28.01-17.67c3.95-2.49,4.84-7.49,1.98-11.17l-4.69-6.04c-2.86-3.68-8.37-4.64-12.32-2.15l-50.15,31.63c-3.95,2.49-4.84,7.49-1.98,11.17l.77.99c1.75,2.26,4.24,3.42,6.87,3.93,2.28.45,4.55,3.29,6.81,3.81,3.68.85,7.11,2.7,10.46,4.6l15.06,8.54-34.78,19.75c-4.08,2.32-5.23,7.27-2.56,11.06l1.14,1.62c.48,1.38,1.34,2.65,2.58,3.66l.67.95c1.71,2.43,4.56,3.77,7.46,3.83l46.41,26.31c4.2,2.38,9.61,1.26,12.09-2.49Z"/>
      <g>
        <path class="cls-5" d="M563.81,48.97l-19.6-10.79c-2.52-1.39-2.34-4.83.39-5.85.22-.08.42-.13.6-.15,3.12-.22,11.03,5.29,11.03,5.29,0,0,10.53-7.56,14.68-7.14.12.01.25.06.39.14,1.23.65,1.37,2.21.34,3.1l-8.4,7.26,8.52,7.47s7.12-2.88,9.25-1.93c.12.05.23.16.34.3.84,1.09.41,2.59-.87,3.26l-2.19,1.15c-1.01.53-1.72,1.43-1.93,2.46h0c-.2.96-1.13,1.65-2.21,1.65h-.21l-10.14-6.21Z"/>
        <path class="cls-7" d="M602.02,93.29c-12.35-14.9-33.81-26.01-53.69-20.61-19.89,5.41-29.17,32.9-11.89,43.19,13.09,7.8,31.51,1.86,45.93,7.48,21.55,8.4,18.97,40.88-2.14,50.13-21.1,9.25-48.51-3.05-58.03-22.21"/>
        <path class="cls-3" d="M598.24,162.93s-24.99,15.45-40.37,17.37c-15.38,1.92-34.02-4.16-39.54-16.65-7.81-17.67,13.77-33.09,34.15-39.42,20.38-6.33,45.01-11.61,52.46-28.59,6.21-14.17-3.74-31.6-19.56-40.46"/>
      </g>
    </g>
    <g>
      <g>
        <path class="cls-6" d="M734.31,222.41c-21.64,0-39.19,15.82-39.19,35.33s17.55,35.33,39.19,35.33,39.19-15.82,39.19-35.33-17.55-35.33-39.19-35.33Z"/>
        <path class="cls-6" d="M589.63,252.54h-72.45v-64.63h-24.9v64.63h-69.8c-10.22,0-18.51,8.76-18.51,19.57s8.29,19.57,18.51,19.57h167.15c10.23,0,18.51-8.76,18.51-19.57s-8.29-19.57-18.51-19.57Z"/>
        <path class="cls-6" d="M373.67,243.99c-13.42,0-24.29,11.54-24.29,25.78s10.87,25.78,24.29,25.78,24.29-11.54,24.29-25.78-10.87-25.78-24.29-25.78ZM373.67,278.13c-4.35,0-7.87-3.74-7.87-8.35s3.52-8.35,7.87-8.35,7.87,3.74,7.87,8.35-3.52,8.35-7.87,8.35Z"/>
        <path class="cls-6" d="M637.99,242.73c-13.42,0-24.29,11.54-24.29,25.78s10.87,25.78,24.29,25.78,24.29-11.54,24.29-25.78-10.87-25.78-24.29-25.78ZM637.99,276.87c-4.35,0-7.87-3.74-7.87-8.35s3.52-8.35,7.87-8.35,7.87,3.74,7.87,8.35-3.52,8.35-7.87,8.35Z"/>
      </g>
      <rect class="cls-8" x="628.23" y="27.3" width="19.52" height="206.18" rx="1.76" ry="1.76"/>
      <rect class="cls-6" x="337.94" y=".38" width="324.23" height="17.95" rx="1.53" ry="1.53"/>
      <rect class="cls-6" x="359.21" y="27.3" width="21.78" height="206.18" rx="1.28" ry="1.28"/>
      <path class="cls-1" d="M417.28,272.35c-1.26-.76-2.36-1.77-3.04-2.85-1.39-2.22-.45-3.91,2.12-3.78l13.26.68c2.56.13,5.77,2.04,7.16,4.26,1.39,2.22.45,3.91-2.12,3.78l-13.26-.68c-1.32-.07-2.8-.6-4.12-1.41ZM442.86,272.99c-.98-.87-1.71-2.03-1.95-3.3-.5-2.59,1.22-4.63,3.84-4.54l13.57.44c2.62.09,5.16,2.26,5.66,4.85.5,2.59-1.22,4.63-3.84,4.54l-13.57-.44c-1.35-.04-2.67-.64-3.7-1.56ZM469.72,272.79c-.7-.77-1.1-1.8-1.06-2.93.09-2.31,2.03-4.13,4.34-4.07l11.97.32c2.32.06,4.12,1.99,4.04,4.29-.08,2.31-2.03,4.13-4.34,4.07l-11.97-.32c-1.19-.03-2.24-.55-2.98-1.37ZM597.96,273.06c1.32-.78,2.47-1.83,3.17-2.98,1.43-2.37.39-4.28-2.33-4.27l-14.05.07c-2.72.02-6.08,1.95-7.51,4.32-1.43,2.37-.39,4.28,2.33,4.27l14.05-.07c1.39,0,2.96-.52,4.34-1.34ZM544.14,272.97c-1.94-.79-3.76-1.85-5.04-3.01-2.63-2.39-1.96-4.31,1.49-4.28l17.86.14c3.45.03,8.38,1.99,11,4.38,2.63,2.39,1.96,4.31-1.49,4.28l-17.86-.14c-1.77-.01-3.93-.54-5.97-1.37ZM512.28,273.46c-1.27-.82-2.33-1.95-2.92-3.2-1.2-2.57.09-4.69,2.89-4.73l14.46-.21c2.8-.04,6.04,2.01,7.23,4.58,1.2,2.57-.09,4.69-2.89,4.73l-14.46.21c-1.43.02-2.99-.51-4.32-1.38ZM509.31,218.81c-.51,1.13-1.24,2.17-2.08,2.85-1.72,1.4-3.24.79-3.39-1.37l-.8-11.17c-.15-2.16,1.12-5.05,2.84-6.45,1.72-1.4,3.24-.79,3.39,1.37l.8,11.17c.08,1.11-.22,2.41-.76,3.6ZM508.37,247.58c-.71,1.2-1.66,2.26-2.68,2.92-2.11,1.34-3.74.46-3.66-1.98l.4-11.56c0-.28.01-.55.01-.82-.02-2.37,1.68-5.47,3.79-6.93,2.11-1.46,3.83-.72,3.84,1.65,0,.4,0,.81-.02,1.23l-.4,11.56c-.04,1.25-.53,2.67-1.28,3.93ZM492.28,271.22c.16-2.21,1.31-4.11,2.81-4.46,1.96-.46,3.86-1.69,5.48-3.57l1.15-1.32c1.41-1.63,3.36-1.28,4.34.77.99,2.05.64,5.04-.78,6.66l-1.15,1.32c-2.51,2.89-5.44,4.79-8.47,5.51-1.71.4-3.24-1.37-3.4-3.96-.02-.32-.02-.64,0-.95Z"/>
    </g>
    <g>
      <path class="cls-2" d="M681.32,28.07h70.83c8.92,0,17.32,6.37,22.74,17.22l38.29,76.75c3.37,6.75,4.75,15.33,3.83,23.71l-9.01,81.77c-.79,7.13-3.5,13.43-7.47,17.35h0c-4.53,4.48-10.47,3.68-14.43-1.93l-7.65-10.86c-14.09-19.98-34.7-29.98-55.03-25.56-.32.07-.64.14-.96.21-14.18,3.22-26.86,13.79-35.26,29.32-3.48,6.44-6.83,11.78-9.1,11.71h-15.7c-3.51-.11-2.65-36.75-2.65-42.12V54.22c0-14.45,7.65-26.16,17.08-26.16h4.5Z"/>
      <path class="cls-9" d="M717.51,79.2c-1.42-22.22,29.63-12.23,29.63-12.23,3.17,1.96,6.71,13.61,8.72,21.81l17.28,57.36c.96,2.8-.09,6.52-1.83,6.52h-49.37c-2.44,0-4.42-3.8-4.42-8.49v-60.38s.01-4.41,0-4.59Z"/>
    </g>
  </g>
  <g>
    <path d="M95.58,331.88v155.94h-54.12v-155.94H0v-62.83h136.91v62.83h-41.33Z"/>
    <path d="M283.82,417.63h-75.59c-1.16-4.59-1.73-8.81-1.73-12.66,0-5.34.8-10.58,2.4-15.71h25.33c-1.78-11.86-7.33-17.79-16.66-17.79-6.22,0-11.29,3.18-15.2,9.54-3.91,6.36-5.87,14.5-5.87,24.44s1.89,18.75,5.67,25.16c3.78,6.41,8.73,9.62,14.86,9.62,4.98,0,9.78-2.99,14.4-8.98l28.39,41.03c-13.24,12.5-27.95,18.75-44.13,18.75-19.73,0-36.31-7.96-49.72-23.88-13.42-15.92-20.13-35.63-20.13-59.14s6.78-43.17,20.33-59.3c13.55-16.13,30.19-24.2,49.92-24.2s35.48,7.88,48.59,23.64c13.11,15.76,19.66,35.18,19.66,58.26,0,2.35-.18,6.09-.53,11.22Z"/>
    <path d="M304.48,330.28h49.86v86.06c0,6.73.58,11.41,1.73,14.02,1.15,2.62,3.24,3.93,6.27,3.93,5.6,0,8.4-5.98,8.4-17.95v-86.06h49.86v86.06c0,6.73.6,11.41,1.8,14.02,1.2,2.62,3.31,3.93,6.33,3.93,5.51,0,8.27-5.98,8.27-17.95v-86.06h49.86v98.41c0,17.95-5.02,33.2-15.06,45.76-10.04,12.56-22.22,18.83-36.53,18.83s-27.99-7.48-39.73-22.44c-12.98,14.96-26.04,22.44-39.19,22.44-16.62,0-29.95-7.27-39.99-21.8-7.91-11.43-11.86-27.94-11.86-49.52v-91.67Z"/>
    <path d="M599.36,330.28v63.15c-7.02,0-11.84,1.58-14.46,4.73s-4.29,9.38-5,18.67c-2.31,30.88-12.26,52.68-29.86,65.39-9.33,6.62-22.58,9.94-39.73,9.94h-6.93v-63.47h2.27c8,0,13.71-2,17.13-6.01,3.42-4.01,5.4-11.03,5.93-21.08.71-16.35,1.98-27.83,3.8-34.46,1.82-6.62,5.53-13.2,11.13-19.71,9.78-11.43,23.33-17.15,40.66-17.15h15.06Z"/>
    <path d="M698.94,330.28v63.15c-7.02,0-11.84,1.58-14.46,4.73-2.62,3.15-4.29,9.38-5,18.67-2.31,30.88-12.26,52.68-29.86,65.39-9.33,6.62-22.58,9.94-39.73,9.94h-6.93v-63.47h2.27c8,0,13.71-2,17.13-6.01,3.42-4.01,5.4-11.03,5.93-21.08.71-16.35,1.98-27.83,3.8-34.46,1.82-6.62,5.53-13.2,11.13-19.71,9.78-11.43,23.33-17.15,40.66-17.15h15.06Z"/>
    <path d="M765.06,328.04v159.79h-49.86v-159.79h49.86Z"/>
    <path d="M844.25,269.06v218.77h-49.86v-218.77h49.86Z"/>
  </g>
</svg>